<svg width="105" height="52" viewBox="0 0 105 52" fill="none" xmlns="http://www.w3.org/2000/svg">
<path d="M78.2824 8.29263L77.3702 12.0243L76.4581 15.7726L6.40191 10.0341L0 0H72.4112C76.8561 0 79.5927 4.06339 78.2824 8.29263Z" fill="#E63A24"/>
<path d="M72.593 31.6447L68.1813 49.8222L67.8496 49.7393L39.0244 41.712L32.5728 31.6282L71.5481 31.6116L72.593 31.6447Z" fill="#E63A24"/>
<path d="M74.7004 23.0039L72.594 31.6448L71.5658 31.5287L20.7485 25.8565L14.2969 15.7727H76.4584L74.7004 23.0039Z" fill="#E63A24"/>
<path d="M101.601 40.0701C99.0801 39.3404 96.8742 39.7052 96.8742 39.7052C92.0479 40.0535 88.4323 41.7618 83.8382 44.0837C77.9836 47.0525 73.8373 51.5139 73.8373 51.5139L71.25 50.7344L77.8841 23.4683L90.0245 25.16C92.7279 25.8234 94.7513 26.7687 96.2274 28.0624C97.7035 29.356 98.6489 30.998 99.1962 33.0545L99.3952 33.1209C99.3952 33.1209 104.022 35.1609 104.52 38.5608C104.802 39.9374 104.122 41.4301 102.712 42.0106C102.662 42.0272 102.596 42.0438 102.546 42.0769C102.53 42.0769 102.513 42.0935 102.497 42.0935C102.513 42.0769 103.16 40.5677 101.601 40.0701Z" fill="#DB4734"/>
<mask id="mask0_252_1706" style="mask-type:luminance" maskUnits="userSpaceOnUse" x="71" y="23" width="34" height="29">
<path d="M71.2666 50.7344L73.8539 51.5139C73.8539 51.5139 78.0002 47.0359 83.8548 44.0837C88.4655 41.7618 92.0811 40.0369 96.8908 39.7052C96.8908 39.7052 99.0801 39.3404 101.601 40.0867C103.16 40.5842 102.513 42.0935 102.513 42.0935C102.53 42.0935 102.546 42.0769 102.563 42.0769C102.613 42.0603 102.679 42.0438 102.729 42.0106C104.139 41.4301 104.819 39.9374 104.537 38.5608C104.039 35.1609 99.4118 33.1209 99.4118 33.1209L99.2128 33.0545C98.682 30.998 97.7367 29.356 96.2606 28.0624C94.7679 26.7687 92.7445 25.8234 90.0577 25.16L77.9173 23.4683L71.2666 50.7344Z" fill="white"/>
</mask>
<g mask="url(#mask0_252_1706)">
<path d="M104.802 23.4683H71.2666V51.5139H104.802V23.4683Z" fill="url(#paint0_linear_252_1706)"/>
</g>
<defs>
<linearGradient id="paint0_linear_252_1706" x1="71.2521" y1="37.475" x2="104.576" y2="37.475" gradientUnits="userSpaceOnUse">
<stop stop-color="#32080B"/>
<stop offset="0.0001" stop-color="#32080B"/>
<stop offset="0.578125" stop-color="#E63A24"/>
<stop offset="1" stop-color="#E63A24"/>
</linearGradient>
</defs>
</svg>
