<svg width="796" height="124" viewBox="0 0 796 124" fill="none" xmlns="http://www.w3.org/2000/svg">
<path d="M92.1557 0H42.0116L0 123.099H32.5699L40.7024 99.9709H93.4252L101.399 123.099H134.167L92.1557 0ZM66.2902 75.3352C63.4736 75.3352 60.6569 75.5732 57.999 76.4063C48.7953 79.3023 44.7092 86.0067 44.1141 87.1175L47.6052 78.4295L52.4847 65.4174L67.044 22.9695L85.1736 75.3352H66.2902Z" fill="white"/>
<path d="M238.386 0V96.7972C236.72 91.7986 234.657 86.4431 232.832 81.9999L198.239 0H144.723V123.099H175.825V26.1035C177.491 31.8558 179.514 37.4097 181.736 42.7653L215.972 123.099H269.488V0H238.386Z" fill="white"/>
<path d="M362.031 52.207L409.041 0H366.831L322.043 54.4286V0H289.473V123.099H322.043V96.4401L340.371 76.2476L370.163 123.099H409.2L362.031 52.207Z" fill="white"/>
<path d="M511.007 0H460.863L418.852 123.099H451.421L459.554 99.9709H512.316L520.29 123.099H553.059L511.007 0ZM485.38 75.3352C482.563 75.3352 479.747 75.5732 477.089 76.4063C467.885 79.3023 463.799 86.0067 463.204 87.1175L466.734 78.4295L468.044 74.8988V74.8591L485.816 22.9695L503.946 75.3352H485.38Z" fill="white"/>
<path d="M732.325 19.8355L730.143 28.7615L727.961 37.7271L560.391 24.0009L545.078 0H718.282C728.913 0 735.459 9.71939 732.325 19.8355Z" fill="#E63A24"/>
<path d="M718.722 75.6916L708.17 119.171L707.376 118.973L638.428 99.7719L622.996 75.652L716.223 75.6123L718.722 75.6916Z" fill="#E63A24"/>
<path d="M723.751 55.0238L718.713 75.6924L716.253 75.4147L594.702 61.8472L579.27 37.7273H727.956L723.751 55.0238Z" fill="#E63A24"/>
<path d="M788.11 95.8444C782.08 94.0989 776.803 94.9717 776.803 94.9717C765.259 95.8048 756.611 99.8909 745.622 105.445C731.618 112.546 721.7 123.217 721.7 123.217L715.512 121.353L731.38 56.1338L760.419 60.1802C766.886 61.7671 771.725 64.0283 775.256 67.1227C778.787 70.217 781.048 74.1444 782.357 79.0636L782.833 79.2223C782.833 79.2223 793.902 84.1018 795.092 92.2344C795.766 95.5271 794.14 99.0975 790.768 100.486C790.649 100.526 790.49 100.565 790.371 100.645C790.331 100.645 790.291 100.684 790.252 100.684C790.291 100.645 791.839 97.0346 788.11 95.8444Z" fill="#E63A24"/>
</svg>
