<svg width="155" height="24" viewBox="0 0 155 24" fill="none" xmlns="http://www.w3.org/2000/svg">
<path d="M142.64 3.86349L142.215 5.60206L141.79 7.34836L109.152 4.67482L106.169 0H139.905C141.976 0 143.251 1.89311 142.64 3.86349Z" fill="#E63A24"/>
<path d="M139.99 14.743L137.935 23.2118L137.78 23.1731L124.351 19.4333L121.345 14.7353L139.503 14.7275L139.99 14.743Z" fill="#E63A24"/>
<path d="M140.971 10.7174L139.99 14.7431L139.511 14.689L115.835 12.0464L112.83 7.34839H141.79L140.971 10.7174Z" fill="#E63A24"/>
<path d="M153.505 18.6683C152.33 18.3283 151.302 18.4983 151.302 18.4983C149.054 18.6606 147.369 19.4565 145.229 20.5382C142.501 21.9214 140.57 23.9999 140.57 23.9999L139.364 23.6367L142.455 10.9336L148.111 11.7217C149.371 12.0308 150.313 12.4713 151.001 13.074C151.689 13.6767 152.129 14.4416 152.384 15.3998L152.477 15.4307C152.477 15.4307 154.633 16.3811 154.865 17.9651C154.996 18.6065 154.679 19.3019 154.022 19.5724C153.999 19.5801 153.968 19.5878 153.945 19.6033C153.937 19.6033 153.93 19.611 153.922 19.611C153.93 19.6033 154.231 18.9001 153.505 18.6683Z" fill="#E63A24"/>
<path d="M17.9498 0H8.18287L0 23.9768H6.34385L7.92788 19.472H18.197L19.7502 23.9768H26.1326L17.9498 0ZM12.9118 14.6735C12.3632 14.6735 11.8146 14.7199 11.2968 14.8822C9.50419 15.4462 8.70831 16.7521 8.5924 16.9684L9.27238 15.2762L10.2228 12.7418L13.0586 4.47392L16.5898 14.6735H12.9118Z" fill="#0C2A3D"/>
<path d="M46.4319 0V18.8538C46.1073 17.8802 45.7055 16.8371 45.3501 15.9717L38.6122 0H28.1885V23.9768H34.2464V5.08435C34.571 6.20477 34.965 7.28654 35.3978 8.32968L42.0661 23.9768H52.4898V0H46.4319Z" fill="#0C2A3D"/>
<path d="M70.5164 10.1687L79.6729 0H71.4514L62.7276 10.6014V0H56.3838V23.9768H62.7276V18.7843L66.2975 14.8513L72.1005 23.9768H79.7038L70.5164 10.1687Z" fill="#0C2A3D"/>
<path d="M99.5308 0H89.7639L81.5811 23.9768H87.9249L89.5089 19.472H99.7858L101.339 23.9768H107.721L99.5308 0ZM94.5392 14.6735C93.9906 14.6735 93.442 14.7199 92.9243 14.8822C91.1316 15.4462 90.3357 16.7521 90.2198 16.9684L90.9075 15.2762L91.1625 14.5885V14.5808L94.6242 4.47392L98.1554 14.6735H94.5392Z" fill="#0C2A3D"/>
</svg>
